<?xml version="1.0" encoding="utf-8"?><!DOCTYPE svg PUBLIC "-//W3C//DTD SVG 1.1//EN" "http://www.w3.org/Graphics/SVG/1.1/DTD/svg11.dtd"><svg version="1.1" baseProfile="full" xmlns="http://www.w3.org/2000/svg" xmlns:xlink="http://www.w3.org/1999/xlink" xmlns:ev="http://www.w3.org/2001/xml-events"   height="68px"   width="51px" ><path opacity="0.102" fill="rgb( 0, 0, 0 )" d="M36.362,48.8420000000001 C36.362,48.8420000000001 40.622,53.1489999999999 40.622,53.1489999999999 C39.129,54.607 35.802,57.4209999999998 31.318,58.6170000000002 C31.318,58.6170000000002 29.579,34.2640000000001 29.579,34.2640000000001 C29.579,34.2640000000001 38.271,34.0279999999998 38.271,34.0279999999998 C40.359,33.971 41.915,32.0320000000002 41.748,29.6959999999999 C41.581,27.3600000000001 39.755,25.5120000000002 37.667,25.5680000000002 C37.667,25.5680000000002 28.975,25.8040000000001 28.975,25.8040000000001 C28.975,25.8040000000001 28.603,20.587 28.603,20.587 C28.603,20.587 28.5069999999999,20.5900000000001 28.5069999999999,20.5900000000001 C31.546,18.922 33.497,15.3249999999998 33.204,11.2150000000001 C32.806,5.63700000000017 28.427,1.20800000000008 23.443,1.34299999999985 C18.4589999999999,1.47800000000007 14.728,6.12699999999995 15.126,11.7049999999999 C15.42,15.8159999999998 17.876,19.2930000000001 21.141,20.79 C21.141,20.79 21.045,20.7930000000001 21.045,20.7930000000001 C21.045,20.7930000000001 21.418,26.009 21.418,26.009 C21.418,26.009 12.724,26.2449999999999 12.724,26.2449999999999 C10.6369999999999,26.3020000000001 9.08100000000002,28.2420000000002 9.24699999999996,30.5770000000002 C9.41399999999999,32.913 11.241,34.761 13.328,34.7040000000002 C13.328,34.7040000000002 22.021,34.4679999999998 22.021,34.4679999999998 C22.021,34.4679999999998 23.76,58.8229999999999 23.76,58.8229999999999 C19.122,57.8739999999998 15.407,55.2510000000002 13.713,53.8800000000001 C13.713,53.8800000000001 17.342,49.3589999999999 17.342,49.3589999999999 C17.342,49.3589999999999 3.94000000000005,49.7060000000001 3.94000000000005,49.7060000000001 C3.94000000000005,49.7060000000001 5.02499999999998,64.7049999999999 5.02499999999998,64.7049999999999 C5.02499999999998,64.7049999999999 8.76999999999998,60.038 8.76999999999998,60.038 C11.319,62.2510000000002 18.77,67.8980000000001 28.178,67.6419999999998 C37.585,67.3870000000002 44.202,61.3589999999999 46.425,59.0169999999998 C46.425,59.0169999999998 50.821,63.462 50.821,63.462 C50.821,63.462 49.764,48.4630000000002 49.764,48.4630000000002 C49.764,48.4630000000002 36.362,48.8420000000001 36.362,48.8420000000001 ZM24.467,15.6900000000001 C22.379,15.7469999999998 20.552,13.8989999999999 20.385,11.5630000000001 C20.2190000000001,9.22600000000011 21.775,7.28699999999981 23.8630000000001,7.23000000000002 C25.95,7.17299999999977 27.777,9.02199999999993 27.944,11.3580000000002 C28.111,13.694 26.554,15.634 24.467,15.6900000000001 Z "/><path fill="rgb( 0, 101, 139 )" d="M33.385,43.799 C33.385,43.799 37.415,47.8150000000001 37.415,47.8150000000001 C35.787,49.1019999999999 32.191,51.5749999999998 27.532,52.5509999999999 C27.532,52.5509999999999 27.532,30.393 27.532,30.393 C27.532,30.393 36.41,30.393 36.41,30.393 C38.543,30.393 40.27,28.6709999999998 40.27,26.5450000000001 C40.27,24.4200000000001 38.543,22.6970000000001 36.41,22.6970000000001 C36.41,22.6970000000001 27.532,22.6970000000001 27.532,22.6970000000001 C27.532,22.6970000000001 27.532,17.9499999999998 27.532,17.9499999999998 C27.532,17.9499999999998 27.434,17.9499999999998 27.434,17.9499999999998 C30.654,16.511 32.905,13.2919999999999 32.905,9.55299999999988 C32.905,4.47800000000007 28.763,0.34799999999996 23.672,0.34799999999996 C18.581,0.34799999999996 14.439,4.47800000000007 14.439,9.55299999999988 C14.439,13.2919999999999 16.6900000000001,16.511 19.909,17.9499999999998 C19.909,17.9499999999998 19.812,17.9499999999998 19.812,17.9499999999998 C19.812,17.9499999999998 19.812,22.6970000000001 19.812,22.6970000000001 C19.812,22.6970000000001 10.932,22.6970000000001 10.932,22.6970000000001 C8.79999999999995,22.6970000000001 7.072,24.4200000000001 7.072,26.5450000000001 C7.072,28.6709999999998 8.79999999999995,30.393 10.932,30.393 C10.932,30.393 19.812,30.393 19.812,30.393 C19.812,30.393 19.812,52.5520000000001 19.812,52.5520000000001 C15.151,51.576 11.556,49.1019999999999 9.928,47.8150000000001 C9.928,47.8150000000001 13.957,43.799 13.957,43.799 C13.957,43.799 0.26800000000003,43.7849999999999 0.26800000000003,43.7849999999999 C0.26800000000003,43.7849999999999 0.28300000000002,57.431 0.28300000000002,57.431 C0.28300000000002,57.431 4.44100000000003,53.2860000000001 4.44100000000003,53.2860000000001 C6.87800000000004,55.3580000000002 14.063,60.6689999999999 23.673,60.6689999999999 C33.283,60.6689999999999 40.467,55.3580000000002 42.905,53.2860000000001 C42.905,53.2860000000001 47.063,57.431 47.063,57.431 C47.063,57.431 47.077,43.7849999999999 47.077,43.7849999999999 C47.077,43.7849999999999 33.385,43.799 33.385,43.799 ZM23.672,13.4009999999998 C21.539,13.4009999999998 19.811,11.6779999999999 19.811,9.55299999999988 C19.811,7.42700000000013 21.539,5.70400000000018 23.672,5.70400000000018 C25.804,5.70400000000018 27.532,7.42700000000013 27.532,9.55299999999988 C27.532,11.6779999999999 25.804,13.4009999999998 23.672,13.4009999999998 Z "/></svg>