<?xml version="1.0" encoding="utf-8"?>
<!-- Generator: Adobe Illustrator 18.1.1, SVG Export Plug-In . SVG Version: 6.00 Build 0)  -->
<svg version="1.1" id="Layer_1" xmlns="http://www.w3.org/2000/svg" xmlns:xlink="http://www.w3.org/1999/xlink" x="0px" y="0px"
	 viewBox="0 0 100 100" enable-background="new 0 0 100 100" xml:space="preserve">
<g>
	<path fill="white" d="M57.6,33.4c-1-1.4-2.2-2.5-3.5-3.6c-0.2,0-2-0.9-3.6-0.9c-1.6,0-3.4,0.9-3.6,0.9c-1.5,1.1-2.8,2.5-3.9,4.1
		c-2.9,4.1-6.7,4-12,3.9v0.3c0.8,2.3,2.6,6.1,4.9,6.6c3.8,0.9,7.7,0.6,11.4-0.4c2.1-0.6,4.1-0.8,6.2-0.1c2.4,0.8,4.9,1,7.4,1.1
		c0.4,0,1-0.2,1.2,0.3c0.1,0.5-0.5,0.8-0.9,1.1c-0.6,0.5-1,0-1.5-0.3c-1.5-0.9-2.9-0.9-4.1,0.4c-0.8,0.9-1.6,1-2.7,0.8
		c-2.5-0.4-8.7-0.6-11.1-1.4c-0.8-0.3-1.7-0.7-2.7,0.1c0.4,0.2,0.6,0.4,0.9,0.5c2.9,1.2,9.8,1.7,12.9,2.1c0.8,0.1,1.6,0.2,2,1.2
		c0.5,1.4,1.7,2.1,3.2,2c1.6-0.1,2.6-1.1,2.9-2.6c0.1-0.7,0.5-1.2,1.1-1.7c0.6-0.4,1.5-1,1.2-1.7c-0.4-1.2,0.5-1.1,1.1-1.2
		c2.5-0.5,4.7-4.5,5.6-7.1v-0.3C64.4,37.6,60.6,37.7,57.6,33.4z M50,19c-17.1,0-31,13.9-31,31s13.9,31,31,31s31-13.9,31-31
		S67.1,19,50,19z M50,77c-14.9,0-27-12.1-27-27c0-14.9,12.1-27,27-27s27,12.1,27,27C77,64.9,64.9,77,50,77z M62.6,53.2
		c0-0.2-0.2-0.3-0.3-0.3H62c-0.2,0-0.3,0.1-0.3,0.3c0,1-0.2,2-0.5,2.8c-0.4,1-1.1,2-2.2,2.8c-0.4,0.3-0.8,0.5-1.1,0.5
		c-0.5,0-1.1-0.4-1.8-0.8l-0.1-0.1c-0.7-0.5-1.7-0.8-2.5-0.8c-0.5,0-0.9,0.1-1.2,0.2c-0.5,0.2-0.8,0.4-1,0.5c-0.2-0.2-0.5-0.3-1-0.5
		c-0.4-0.2-0.8-0.2-1.2-0.2c-0.9,0-1.8,0.3-2.5,0.8l-0.1,0.1c-0.7,0.5-1.2,0.8-1.8,0.8c-0.3,0-0.7-0.1-1.1-0.5
		C42.4,58,41.6,57,41.3,56c-0.3-0.8-0.5-1.7-0.5-2.8c0-0.2-0.1-0.3-0.3-0.3h-0.3c-0.2,0-0.3,0.1-0.3,0.3l0,0.1
		c-0.2,2.9-0.5,7.3,1.1,10c0.5,0.8,1.1,1.6,1.7,2.3l0,0c1.3,1.6,3,4.7,4.8,5.5c0.1,0.1,2.2,0.8,3.8,0.8l0.1,0c0.8,0,1.6-0.1,2.2-0.3
		c0.6-0.1,1.1-0.3,1.6-0.6c1.8-0.8,3.4-3.9,4.7-5.5l0,0c0.6-0.7,1.2-1.5,1.7-2.3C63.1,60.5,62.8,56.2,62.6,53.2L62.6,53.2z M55,61.7
		c-0.2,0.6-0.5,1-0.8,1.2c-0.3,0.2-0.7,0.5-1.2,0.5c-0.1,0-0.1,0-0.2,0c-0.2,0-0.3-0.1-0.4-0.2c0,0-0.1,0-0.1-0.1
		c-0.2-0.1-0.4-0.2-0.7-0.3l-0.1,0c-0.2-0.1-0.4-0.1-0.6,0l-0.1,0c-0.2,0.1-0.5,0.1-0.7,0.3c0,0-0.1,0-0.1,0.1
		c-0.1,0.1-0.2,0.2-0.4,0.2c-0.1,0-0.1,0-0.2,0c-0.4,0-0.9-0.2-1.2-0.5c-0.3-0.3-0.6-0.7-0.8-1.2c-0.1-0.3-0.1-0.5,0-0.8
		c0.1-0.3,0.4-0.5,0.8-0.7c0.7-0.3,1.4-0.4,2.1-0.5c0,0,0.1,0,0.2,0h1.3c0.1,0,0.2,0,0.2,0c0.8,0,1.5,0.2,2.1,0.5
		c0.4,0.2,0.7,0.4,0.8,0.7C55.1,61.1,55.1,61.4,55,61.7z"/>
</g>
</svg>
