<?xml version="1.0" encoding="utf-8"?><!DOCTYPE svg PUBLIC "-//W3C//DTD SVG 1.1//EN" "http://www.w3.org/Graphics/SVG/1.1/DTD/svg11.dtd"><svg version="1.1" baseProfile="full" xmlns="http://www.w3.org/2000/svg" xmlns:xlink="http://www.w3.org/1999/xlink" xmlns:ev="http://www.w3.org/2001/xml-events"   height="100px"   width="496px" ><path fill-opacity="0" fill="rgb( 23, 213, 247 )" d="M250,0 C277.614,0 300,22.386 300,50 C300,77.614 277.614,100 250,100 C222.386,100 200,77.614 200,50 C200,22.386 222.386,0 250,0 Z "/><path fill="rgb( 0, 101, 139 )" d="M280.556,53.931 C280.526,53.931 280.451,53.9290000000001 280.421,53.9290000000001 C280.421,53.9290000000001 272.46,53.6990000000001 272.46,53.6990000000001 C271.906,57.71 270.332,61.3820000000001 268.002,64.4639999999999 C268.002,64.4639999999999 271.379,67.5170000000001 271.379,67.5170000000001 C272.064,68.1479999999999 272.468,69.0440000000001 272.484,69.973 C272.501,70.9010000000001 272.134,71.8109999999999 271.474,72.47 C270.824,73.123 269.961,73.48 269.044,73.48 C268.09,73.48 267.171,73.076 266.521,72.375 C266.521,72.375 263.466,68.9970000000001 263.466,68.9970000000001 C260.384,71.328 256.71,72.902 252.701,73.4559999999999 C252.701,73.4559999999999 252.931,81.4169999999999 252.931,81.4169999999999 C252.966,82.348 252.617,83.2670000000001 251.974,83.9349999999999 C251.331,84.604 250.427,84.9870000000001 249.496,84.9870000000001 C248.565,84.9870000000001 247.66,84.604 247.017,83.9349999999999 C246.374,83.2670000000001 246.026,82.348 246.06,81.4169999999999 C246.06,81.4169999999999 246.29,73.4559999999999 246.29,73.4559999999999 C242.28,72.902 238.607,71.328 235.525,68.9970000000001 C235.525,68.9970000000001 232.47,72.375 232.47,72.375 C231.82,73.078 230.901,73.48 229.947,73.48 C229.03,73.48 228.167,73.1199999999999 227.517,72.47 C226.858,71.8109999999999 226.489,70.8989999999999 226.507,69.973 C226.526,69.047 226.927,68.1510000000001 227.612,67.5170000000001 C227.612,67.5170000000001 230.99,64.462 230.99,64.462 C228.659,61.3800000000001 227.085,57.7059999999999 226.531,53.6969999999999 C226.531,53.6969999999999 218.57,53.9269999999999 218.57,53.9269999999999 C218.54,53.9269999999999 218.466,53.9290000000001 218.436,53.9290000000001 C216.542,53.9290000000001 215,52.3879999999999 215,50.491 C215,48.595 216.542,47.0540000000001 218.436,47.0540000000001 C218.466,47.0540000000001 218.54,47.056 218.57,47.056 C218.57,47.056 226.533,47.2840000000001 226.533,47.2840000000001 C227.088,43.2729999999999 228.662,39.6010000000001 230.992,36.519 C230.992,36.519 227.614,33.4659999999999 227.614,33.4659999999999 C226.93,32.8340000000001 226.528,31.9390000000001 226.51,31.011 C226.491,30.0820000000001 226.86,29.172 227.519,28.5150000000001 C228.169,27.8630000000001 229.033,27.5060000000001 229.949,27.5060000000001 C230.903,27.5060000000001 231.823,27.9100000000001 232.473,28.6110000000001 C232.473,28.6110000000001 235.525,31.9849999999999 235.525,31.9849999999999 C238.607,29.655 242.282,28.0809999999999 246.29,27.527 C246.29,27.527 246.06,19.566 246.06,19.566 C246.026,18.633 246.374,17.7159999999999 247.017,17.048 C247.66,16.3800000000001 248.565,15.9960000000001 249.496,15.9960000000001 C250.427,15.9960000000001 251.331,16.3820000000001 251.974,17.05 C252.617,17.7190000000001 252.966,18.6379999999999 252.931,19.569 C252.931,19.569 252.701,27.529 252.701,27.529 C256.712,28.0840000000001 260.384,29.6569999999999 263.466,31.9880000000001 C263.466,31.9880000000001 266.521,28.6110000000001 266.521,28.6110000000001 C267.171,27.9100000000001 268.09,27.5060000000001 269.044,27.5060000000001 C269.961,27.5060000000001 270.824,27.865 271.474,28.5150000000001 C272.134,29.174 272.503,30.085 272.484,31.0129999999999 C272.465,31.9390000000001 272.064,32.8340000000001 271.379,33.4680000000001 C271.379,33.4680000000001 268.002,36.521 268.002,36.521 C270.332,39.6030000000001 271.906,43.278 272.46,47.2860000000001 C272.46,47.2860000000001 280.421,47.056 280.421,47.056 C280.451,47.056 280.526,47.0540000000001 280.556,47.0540000000001 C282.45,47.0540000000001 283.991,48.598 283.991,50.4939999999999 C283.991,52.3900000000001 282.45,53.931 280.556,53.931 ZM226.329,49.6010000000001 C226.329,49.6010000000001 218.48,49.375 218.48,49.375 C218.466,49.375 218.45,49.375 218.436,49.375 C217.818,49.375 217.322,49.867 217.322,50.491 C217.322,51.116 217.818,51.6079999999999 218.438,51.6079999999999 C218.452,51.6079999999999 218.468,51.6079999999999 218.482,51.6079999999999 C218.482,51.6079999999999 226.329,51.383 226.329,51.383 C226.32,51.0830000000001 226.285,50.7929999999999 226.285,50.491 C226.285,50.1900000000001 226.32,49.9000000000001 226.329,49.6010000000001 ZM268.223,70.797 C268.445,71.0360000000001 268.742,71.1569999999999 269.042,71.1569999999999 C269.325,71.1569999999999 269.61,71.048 269.831,70.827 C270.283,70.377 270.27,69.653 269.801,69.2190000000001 C269.801,69.2190000000001 266.507,66.2439999999999 266.507,66.2439999999999 C266.103,66.681 265.683,67.1020000000001 265.247,67.5050000000001 C265.247,67.5050000000001 268.223,70.797 268.223,70.797 ZM249.496,82.6659999999999 C250.134,82.6659999999999 250.635,82.144 250.612,81.5070000000001 C250.612,81.5070000000001 250.387,73.6579999999999 250.387,73.6579999999999 C250.088,73.6669999999999 249.797,73.702 249.496,73.702 C249.194,73.702 248.904,73.6669999999999 248.604,73.6559999999999 C248.604,73.6559999999999 248.379,81.5050000000001 248.379,81.5050000000001 C248.356,82.144 248.857,82.6659999999999 249.496,82.6659999999999 ZM229.19,69.2190000000001 C228.724,69.653 228.71,70.377 229.16,70.827 C229.381,71.048 229.664,71.1569999999999 229.949,71.1569999999999 C230.249,71.1569999999999 230.546,71.0360000000001 230.769,70.797 C230.769,70.797 233.742,67.5029999999999 233.742,67.5029999999999 C233.306,67.0989999999999 232.886,66.6780000000001 232.482,66.2429999999999 C232.482,66.2429999999999 229.19,69.2190000000001 229.19,69.2190000000001 ZM230.769,30.1869999999999 C230.546,29.9469999999999 230.249,29.827 229.949,29.827 C229.666,29.827 229.381,29.9359999999999 229.16,30.1559999999999 C228.708,30.606 228.722,31.3309999999999 229.19,31.7650000000001 C229.19,31.7650000000001 232.482,34.7380000000001 232.482,34.7380000000001 C232.888,34.3019999999999 233.306,33.884 233.742,33.4780000000001 C233.742,33.4780000000001 230.769,30.1869999999999 230.769,30.1869999999999 ZM249.496,18.318 C248.857,18.318 248.356,18.8399999999999 248.379,19.4780000000001 C248.379,19.4780000000001 248.604,27.325 248.604,27.325 C248.904,27.3150000000001 249.194,27.2809999999999 249.496,27.2809999999999 C249.797,27.2809999999999 250.088,27.3150000000001 250.387,27.327 C250.387,27.327 250.612,19.4780000000001 250.612,19.4780000000001 C250.635,18.8399999999999 250.134,18.318 249.496,18.318 ZM269.801,31.7650000000001 C270.268,31.3309999999999 270.281,30.606 269.831,30.1559999999999 C269.61,29.9359999999999 269.328,29.827 269.042,29.827 C268.742,29.827 268.445,29.9469999999999 268.223,30.1869999999999 C268.223,30.1869999999999 265.249,33.4780000000001 265.249,33.4780000000001 C265.685,33.8820000000001 266.105,34.3019999999999 266.509,34.7380000000001 C266.509,34.7380000000001 269.801,31.7650000000001 269.801,31.7650000000001 ZM249.496,29.6010000000001 C237.976,29.6010000000001 228.606,38.972 228.606,50.491 C228.606,62.011 237.976,71.3810000000001 249.496,71.3810000000001 C261.015,71.3810000000001 270.385,62.011 270.385,50.491 C270.385,38.972 261.015,29.6010000000001 249.496,29.6010000000001 ZM280.556,49.375 C280.542,49.375 280.526,49.375 280.512,49.375 C280.512,49.375 272.662,49.6010000000001 272.662,49.6010000000001 C272.672,49.9000000000001 272.706,50.1900000000001 272.706,50.491 C272.706,50.7929999999999 272.672,51.0830000000001 272.662,51.383 C272.662,51.383 280.512,51.6079999999999 280.512,51.6079999999999 C280.526,51.6079999999999 280.542,51.6079999999999 280.556,51.6079999999999 C281.173,51.6079999999999 281.67,51.114 281.67,50.491 C281.67,49.8699999999999 281.173,49.375 280.556,49.375 ZM249.496,67.9000000000001 C239.898,67.9000000000001 232.088,60.0899999999999 232.088,50.491 C232.088,40.894 239.898,33.0840000000001 249.496,33.0840000000001 C259.093,33.0840000000001 266.904,40.894 266.904,50.491 C266.904,60.0899999999999 259.093,67.9000000000001 249.496,67.9000000000001 ZM260.553,60.73 C260.553,60.73 256.287,56.779 256.287,56.779 C256.125,56.9559999999999 255.957,57.1210000000001 255.783,57.2829999999999 C255.783,57.2829999999999 259.734,61.549 259.734,61.549 C260.019,61.287 260.291,61.0150000000001 260.553,60.73 ZM256.459,50.491 C256.459,46.653 253.335,43.528 249.496,43.528 C245.656,43.528 242.532,46.653 242.532,50.491 C242.532,54.3309999999999 245.656,57.4549999999999 249.496,57.4549999999999 C253.335,57.4549999999999 256.459,54.3309999999999 256.459,50.491 ZM252.388,65.296 C254.405,64.903 256.278,64.116 257.921,63.009 C257.921,63.009 253.871,58.634 253.871,58.634 C253.328,58.9269999999999 252.759,59.1610000000001 252.158,59.3420000000001 C252.158,59.3420000000001 252.388,65.296 252.388,65.296 ZM249.496,65.579 C249.69,65.579 249.881,65.558 250.074,65.5509999999999 C250.074,65.5509999999999 249.851,59.741 249.851,59.741 C249.73,59.7449999999999 249.616,59.7760000000001 249.496,59.7760000000001 C249.375,59.7760000000001 249.261,59.7449999999999 249.138,59.739 C249.138,59.739 248.915,65.548 248.915,65.548 C249.111,65.558 249.301,65.579 249.496,65.579 ZM246.604,65.2929999999999 C246.604,65.2929999999999 246.833,59.3399999999999 246.833,59.3399999999999 C246.232,59.1579999999999 245.664,58.924 245.12,58.6320000000001 C245.12,58.6320000000001 241.07,63.0070000000001 241.07,63.0070000000001 C242.714,64.116 244.586,64.903 246.604,65.2929999999999 ZM239.257,61.549 C239.257,61.549 243.208,57.2829999999999 243.208,57.2829999999999 C243.032,57.1210000000001 242.867,56.953 242.704,56.779 C242.704,56.779 238.438,60.73 238.438,60.73 C238.7,61.0150000000001 238.972,61.287 239.257,61.549 ZM236.98,58.9169999999999 C236.98,58.9169999999999 241.355,54.867 241.355,54.867 C241.063,54.3240000000001 240.829,53.7550000000001 240.648,53.153 C240.648,53.153 234.694,53.384 234.694,53.384 C235.084,55.4010000000001 235.873,57.2739999999999 236.98,58.9169999999999 ZM234.409,50.491 C234.409,50.6869999999999 234.43,50.877 234.439,51.0719999999999 C234.439,51.0719999999999 240.246,50.846 240.246,50.846 C240.242,50.7260000000001 240.211,50.6120000000001 240.211,50.491 C240.211,50.3710000000001 240.242,50.2570000000001 240.248,50.134 C240.248,50.134 234.439,49.9110000000001 234.439,49.9110000000001 C234.43,50.106 234.409,50.297 234.409,50.491 ZM236.98,42.066 C235.871,43.7090000000001 235.084,45.5820000000001 234.694,47.5999999999999 C234.694,47.5999999999999 240.648,47.829 240.648,47.829 C240.829,47.2280000000001 241.063,46.6590000000001 241.355,46.116 C241.355,46.116 236.98,42.066 236.98,42.066 ZM238.438,40.2529999999999 C238.438,40.2529999999999 242.704,44.204 242.704,44.204 C242.867,44.027 243.034,43.8630000000001 243.208,43.7 C243.208,43.7 239.257,39.434 239.257,39.434 C238.972,39.6959999999999 238.7,39.9680000000001 238.438,40.2529999999999 ZM246.604,35.6880000000001 C244.586,36.0799999999999 242.714,36.867 241.07,37.9739999999999 C241.07,37.9739999999999 245.12,42.3489999999999 245.12,42.3489999999999 C245.664,42.057 246.232,41.8219999999999 246.833,41.6410000000001 C246.833,41.6410000000001 246.604,35.6880000000001 246.604,35.6880000000001 ZM249.496,35.405 C249.301,35.405 249.111,35.425 248.915,35.434 C248.915,35.434 249.141,41.242 249.141,41.242 C249.261,41.2370000000001 249.375,41.2070000000001 249.496,41.2070000000001 C249.616,41.2070000000001 249.73,41.2370000000001 249.853,41.2439999999999 C249.853,41.2439999999999 250.076,35.434 250.076,35.434 C249.881,35.425 249.69,35.405 249.496,35.405 ZM252.388,35.6900000000001 C252.388,35.6900000000001 252.158,41.644 252.158,41.644 C252.759,41.825 253.328,42.059 253.871,42.3510000000001 C253.871,42.3510000000001 257.921,37.9760000000001 257.921,37.9760000000001 C256.278,36.867 254.405,36.0799999999999 252.388,35.6900000000001 ZM259.734,39.434 C259.734,39.434 255.783,43.7 255.783,43.7 C255.96,43.8630000000001 256.125,44.03 256.287,44.204 C256.287,44.204 260.553,40.2529999999999 260.553,40.2529999999999 C260.291,39.9680000000001 260.019,39.6959999999999 259.734,39.434 ZM262.013,42.066 C262.013,42.066 257.638,46.116 257.638,46.116 C257.931,46.6590000000001 258.165,47.2280000000001 258.346,47.829 C258.346,47.829 264.3,47.5999999999999 264.3,47.5999999999999 C263.907,45.5820000000001 263.121,43.7090000000001 262.013,42.066 ZM264.583,50.491 C264.583,50.297 264.562,50.106 264.555,49.914 C264.555,49.914 258.745,50.136 258.745,50.136 C258.75,50.2570000000001 258.78,50.3710000000001 258.78,50.491 C258.78,50.6120000000001 258.75,50.7260000000001 258.743,50.8489999999999 C258.743,50.8489999999999 264.553,51.0719999999999 264.553,51.0719999999999 C264.562,50.877 264.583,50.6869999999999 264.583,50.491 ZM264.297,53.384 C264.297,53.384 258.344,53.153 258.344,53.153 C258.162,53.7550000000001 257.928,54.3240000000001 257.636,54.867 C257.636,54.867 262.011,58.9169999999999 262.011,58.9169999999999 C263.121,57.2739999999999 263.907,55.4010000000001 264.297,53.384 Z "/><path fill="rgb( 255, 255, 255 )" d="M313.368,34.9770000000001 C313.352,34.9770000000001 313.337,34.9739999999999 313.322,34.9739999999999 C313.322,34.9739999999999 313.322,34.9949999999999 313.322,34.9949999999999 C313.322,34.9949999999999 290.512,34.9949999999999 290.512,34.9949999999999 C290.512,34.9949999999999 290.512,34.9480000000001 290.512,34.9480000000001 C290.503,34.9480000000001 290.495,34.9490000000001 290.486,34.9490000000001 C284.695,34.9490000000001 280,30.1980000000001 280,24.3389999999999 C280,18.4780000000001 284.695,13.7280000000001 290.486,13.7280000000001 C290.588,13.7280000000001 290.687,13.74 290.788,13.7429999999999 C292.936,9.17000000000007 297.529,6 302.865,6 C309.732,6 315.384,11.239 316.149,17.98 C319.55,19.152 322,22.404 322,26.2429999999999 C322,31.067 318.135,34.9770000000001 313.368,34.9770000000001 Z "/><path fill="rgb( 255, 255, 255 )" d="M193.26,86.963 C193.254,86.963 193.248,86.962 193.241,86.962 C193.241,86.962 193.241,86.9970000000001 193.241,86.9970000000001 C193.241,86.9970000000001 176.405,86.9970000000001 176.405,86.9970000000001 C176.405,86.9970000000001 176.405,86.981 176.405,86.981 C176.394,86.981 176.383,86.9829999999999 176.371,86.9829999999999 C172.852,86.9829999999999 170,84.152 170,80.6590000000001 C170,77.8789999999999 171.808,75.5239999999999 174.319,74.675 C174.884,69.7940000000001 179.055,66 184.123,66 C188.062,66 191.452,68.296 193.038,71.607 C193.112,71.605 193.185,71.596 193.26,71.596 C197.535,71.596 201,75.0360000000001 201,79.28 C201,83.5229999999999 197.535,86.963 193.26,86.963 Z "/><path fill="rgb( 30, 194, 255 )" d="M150.5,37 C150.5,37 111.5,37 111.5,37 C111.224,37 111,36.7760000000001 111,36.5 C111,36.5 111,35.5 111,35.5 C111,35.2239999999999 111.224,35 111.5,35 C111.5,35 150.5,35 150.5,35 C150.776,35 151,35.2239999999999 151,35.5 C151,35.5 151,36.5 151,36.5 C151,36.7760000000001 150.776,37 150.5,37 ZM135.5,32 C135.5,32 124.5,32 124.5,32 C124.224,32 124,31.7760000000001 124,31.5 C124,31.5 124,30.5 124,30.5 C124,30.2239999999999 124.224,30 124.5,30 C124.5,30 135.5,30 135.5,30 C135.776,30 136,30.2239999999999 136,30.5 C136,30.5 136,31.5 136,31.5 C136,31.7760000000001 135.776,32 135.5,32 ZM121.5,40 C121.5,40 140.5,40 140.5,40 C140.776,40 141,40.2239999999999 141,40.5 C141,40.5 141,41.5 141,41.5 C141,41.7760000000001 140.776,42 140.5,42 C140.5,42 121.5,42 121.5,42 C121.224,42 121,41.7760000000001 121,41.5 C121,41.5 121,40.5 121,40.5 C121,40.2239999999999 121.224,40 121.5,40 Z "/><path fill="rgb( 30, 194, 255 )" d="M367.5,78 C367.5,78 328.5,78 328.5,78 C328.224,78 328,77.7760000000001 328,77.5 C328,77.5 328,76.5 328,76.5 C328,76.2239999999999 328.224,76 328.5,76 C328.5,76 367.5,76 367.5,76 C367.776,76 368,76.2239999999999 368,76.5 C368,76.5 368,77.5 368,77.5 C368,77.7760000000001 367.776,78 367.5,78 ZM352.5,73 C352.5,73 341.5,73 341.5,73 C341.224,73 341,72.7760000000001 341,72.5 C341,72.5 341,71.5 341,71.5 C341,71.2239999999999 341.224,71 341.5,71 C341.5,71 352.5,71 352.5,71 C352.776,71 353,71.2239999999999 353,71.5 C353,71.5 353,72.5 353,72.5 C353,72.7760000000001 352.776,73 352.5,73 ZM338.5,81 C338.5,81 357.5,81 357.5,81 C357.776,81 358,81.2239999999999 358,81.5 C358,81.5 358,82.5 358,82.5 C358,82.7760000000001 357.776,83 357.5,83 C357.5,83 338.5,83 338.5,83 C338.224,83 338,82.7760000000001 338,82.5 C338,82.5 338,81.5 338,81.5 C338,81.2239999999999 338.224,81 338.5,81 Z "/><path fill="rgb( 30, 194, 255 )" d="M41.5,72 C41.5,72 0.5,72 0.5,72 C0.22399999999999,72 0,71.7760000000001 0,71.5 C0,71.5 0,70.5 0,70.5 C0,70.2239999999999 0.22399999999999,70 0.5,70 C0.5,70 41.5,70 41.5,70 C41.776,70 42,70.2239999999999 42,70.5 C42,70.5 42,71.5 42,71.5 C42,71.7760000000001 41.776,72 41.5,72 ZM35.5,67 C35.5,67 24.5,67 24.5,67 C24.224,67 24,66.7760000000001 24,66.5 C24,66.5 24,65.5 24,65.5 C24,65.2239999999999 24.224,65 24.5,65 C24.5,65 35.5,65 35.5,65 C35.776,65 36,65.2239999999999 36,65.5 C36,65.5 36,66.5 36,66.5 C36,66.7760000000001 35.776,67 35.5,67 ZM27.5,75 C27.5,75 31.5,75 31.5,75 C31.776,75 32,75.2239999999999 32,75.5 C32,75.5 32,76.5 32,76.5 C32,76.7760000000001 31.776,77 31.5,77 C31.5,77 27.5,77 27.5,77 C27.224,77 27,76.7760000000001 27,76.5 C27,76.5 27,75.5 27,75.5 C27,75.2239999999999 27.224,75 27.5,75 Z "/><path fill="rgb( 30, 194, 255 )" d="M495.5,49 C495.5,49 454.5,49 454.5,49 C454.224,49 454,48.7760000000001 454,48.5 C454,48.5 454,47.5 454,47.5 C454,47.2239999999999 454.224,47 454.5,47 C454.5,47 495.5,47 495.5,47 C495.776,47 496,47.2239999999999 496,47.5 C496,47.5 496,48.5 496,48.5 C496,48.7760000000001 495.776,49 495.5,49 ZM471.5,44 C471.5,44 460.5,44 460.5,44 C460.224,44 460,43.7760000000001 460,43.5 C460,43.5 460,42.5 460,42.5 C460,42.2239999999999 460.224,42 460.5,42 C460.5,42 471.5,42 471.5,42 C471.776,42 472,42.2239999999999 472,42.5 C472,42.5 472,43.5 472,43.5 C472,43.7760000000001 471.776,44 471.5,44 ZM464.5,52 C464.5,52 468.5,52 468.5,52 C468.776,52 469,52.2239999999999 469,52.5 C469,52.5 469,53.5 469,53.5 C469,53.7760000000001 468.776,54 468.5,54 C468.5,54 464.5,54 464.5,54 C464.224,54 464,53.7760000000001 464,53.5 C464,53.5 464,52.5 464,52.5 C464,52.2239999999999 464.224,52 464.5,52 Z "/></svg>