<?xml version="1.0" encoding="utf-8"?><!DOCTYPE svg PUBLIC "-//W3C//DTD SVG 1.1//EN" "http://www.w3.org/Graphics/SVG/1.1/DTD/svg11.dtd"><svg version="1.1" baseProfile="full" xmlns="http://www.w3.org/2000/svg" xmlns:xlink="http://www.w3.org/1999/xlink" xmlns:ev="http://www.w3.org/2001/xml-events"   height="18px"   width="15px" ><path fill="rgb( 255, 255, 255 )" d="M13.691,12.165 C13.691,12.165 13.0509999999999,11.767 13.0509999999999,11.767 C13.4159999999999,10.923 13.625,9.988 13.625,8.998 C13.625,8.005 13.414,7.065 13.046,6.22 C13.046,6.22 13.6900000000001,5.82 13.6900000000001,5.82 C13.9780000000001,5.641 14.077,5.244 13.9110000000001,4.935 C13.7439999999999,4.626 13.376,4.519 13.0889999999999,4.698 C13.0889999999999,4.698 12.431,5.107 12.431,5.107 C11.4269999999999,3.639 9.87799999999993,2.63 8.10200000000009,2.443 C8.10200000000009,2.443 8.10200000000009,1.643 8.10200000000009,1.643 C8.10200000000009,1.285 7.83300000000008,0.996 7.50099999999998,0.996 C7.16799999999989,0.996 6.89899999999989,1.285 6.89899999999989,1.643 C6.89899999999989,1.643 6.89899999999989,2.443 6.89899999999989,2.443 C5.12300000000005,2.63 3.57300000000009,3.64 2.56899999999996,5.109 C2.56899999999996,5.109 1.90699999999993,4.698 1.90699999999993,4.698 C1.61899999999991,4.519 1.25099999999998,4.626 1.08500000000004,4.935 C0.9190000000001,5.245 1.01800000000003,5.641 1.30600000000004,5.82 C1.30600000000004,5.82 1.95499999999993,6.222 1.95499999999993,6.222 C1.58799999999997,7.067 1.37699999999995,8.006 1.37699999999995,8.998 C1.37699999999995,9.987 1.58600000000001,10.922 1.95100000000002,11.764 C1.95100000000002,11.764 1.30600000000004,12.164 1.30600000000004,12.164 C1.01900000000001,12.344 0.92000000000007,12.739 1.08600000000001,13.049 C1.19800000000009,13.256 1.40000000000009,13.372 1.60799999999995,13.372 C1.70900000000006,13.372 1.8130000000001,13.345 1.9079999999999,13.286 C1.9079999999999,13.286 2.5630000000001,12.878 2.5630000000001,12.878 C3.56700000000001,14.353 5.11999999999989,15.366 6.89899999999989,15.553 C6.89899999999989,15.553 6.89899999999989,16.353 6.89899999999989,16.353 C6.89899999999989,16.711 7.1690000000001,17.001 7.50099999999998,17.001 C7.83400000000006,17.001 8.10300000000007,16.711 8.10300000000007,16.353 C8.10300000000007,16.353 8.10300000000007,15.553 8.10300000000007,15.553 C9.88100000000009,15.366 11.434,14.353 12.4380000000001,12.881 C12.4380000000001,12.881 13.0889999999999,13.286 13.0889999999999,13.286 C13.184,13.344 13.287,13.372 13.3889999999999,13.372 C13.597,13.372 13.799,13.256 13.9110000000001,13.049 C14.078,12.739 13.979,12.344 13.691,12.165 ZM12.422,8.998 C12.422,9.752 12.2729999999999,10.469 12.0070000000001,11.119 C12.0070000000001,11.119 9.61400000000003,9.633 9.61400000000003,9.633 C9.66699999999992,9.43 9.69699999999989,9.218 9.69699999999989,8.998 C9.69699999999989,8.775 9.66599999999994,8.558 9.61200000000008,8.353 C9.61200000000008,8.353 12.0029999999999,6.868 12.0029999999999,6.868 C12.271,7.521 12.422,8.24 12.422,8.998 ZM7.50099999999998,10.066 C6.95399999999995,10.066 6.50999999999999,9.587 6.50999999999999,8.998 C6.50999999999999,8.41 6.95399999999995,7.931 7.50099999999998,7.931 C8.04899999999998,7.931 8.49399999999991,8.41 8.49399999999991,8.998 C8.49399999999991,9.587 8.04899999999998,10.066 7.50099999999998,10.066 ZM11.384,5.757 C11.384,5.757 8.97600000000011,7.253 8.97600000000011,7.253 C8.72900000000004,7.012 8.43200000000002,6.83 8.10300000000007,6.729 C8.10300000000007,6.729 8.10300000000007,3.748 8.10300000000007,3.748 C9.43299999999999,3.924 10.5989999999999,4.672 11.384,5.757 ZM6.90000000000009,3.748 C6.90000000000009,3.748 6.90000000000009,6.729 6.90000000000009,6.729 C6.56999999999994,6.83 6.27199999999993,7.013 6.02600000000007,7.255 C6.02600000000007,7.255 3.61799999999994,5.76 3.61799999999994,5.76 C4.40200000000004,4.673 5.56799999999998,3.924 6.90000000000009,3.748 ZM2.5809999999999,8.998 C2.5809999999999,8.242 2.73199999999997,7.522 2.99900000000002,6.871 C2.99900000000002,6.871 5.39100000000008,8.356 5.39100000000008,8.356 C5.33699999999999,8.561 5.30600000000004,8.776 5.30600000000004,8.998 C5.30600000000004,9.217 5.33600000000001,9.428 5.38799999999992,9.63 C5.38799999999992,9.63 2.99499999999989,11.116 2.99499999999989,11.116 C2.73000000000002,10.466 2.5809999999999,9.751 2.5809999999999,8.998 ZM3.6110000000001,12.228 C3.6110000000001,12.228 6.01700000000005,10.734 6.01700000000005,10.734 C6.26600000000008,10.98 6.56600000000003,11.165 6.89899999999989,11.268 C6.89899999999989,11.268 6.89899999999989,14.248 6.89899999999989,14.248 C5.56500000000005,14.072 4.39599999999996,13.319 3.6110000000001,12.228 ZM8.10300000000007,14.248 C8.10300000000007,14.248 8.10300000000007,11.268 8.10300000000007,11.268 C8.43599999999992,11.166 8.7349999999999,10.981 8.98399999999992,10.736 C8.98399999999992,10.736 11.3900000000001,12.23 11.3900000000001,12.23 C10.605,13.32 9.4369999999999,14.072 8.10300000000007,14.248 Z "/></svg>