<?xml version="1.0" encoding="utf-8"?><!DOCTYPE svg PUBLIC "-//W3C//DTD SVG 1.1//EN" "http://www.w3.org/Graphics/SVG/1.1/DTD/svg11.dtd"><svg version="1.1" baseProfile="full" xmlns="http://www.w3.org/2000/svg" xmlns:xlink="http://www.w3.org/1999/xlink" xmlns:ev="http://www.w3.org/2001/xml-events"   height="62px"   width="62px" ><path fill-opacity="0" fill="rgb( 0, 169, 232 )" d="M31,0 C48.121,0 62,13.879 62,31 C62,48.121 48.121,62 31,62 C13.879,62 0,48.121 0,31 C0,13.879 13.879,0 31,0 Z "/><path fill="rgb( 255, 255, 255 )" d="M45.398,25.941 C44.799,26.067 43.962,25.918 44.335,27.143 C44.543,27.826 43.687,28.416 43.092,28.861 C42.503,29.3 42.161,29.807 42.011,30.545 C41.704,32.06 40.71,33.003 39.143,33.145 C37.639,33.281 36.483,32.577 35.951,31.189 C35.563,30.176 34.762,30.087 33.928,29.973 C30.779,29.544 23.928,29.074 21.02,27.867 C20.755,27.757 20.522,27.569 20.163,27.349 C21.132,26.554 22.019,26.976 22.852,27.271 C25.206,28.104 31.465,28.307 33.947,28.703 C34.991,28.869 35.819,28.8 36.615,27.902 C37.745,26.629 39.142,26.575 40.688,27.48 C41.152,27.751 41.558,28.219 42.151,27.751 C42.535,27.448 43.124,27.17 43.002,26.639 C42.876,26.093 42.245,26.302 41.828,26.295 C39.318,26.253 36.826,26.018 34.439,25.238 C32.349,24.556 30.352,24.742 28.28,25.318 C24.528,26.361 20.714,26.67 16.874,25.761 C14.618,25.227 12.825,21.434 12,19.156 C12,19.058 12,18.959 12,18.86 C17.283,18.923 21.088,18.987 24.022,14.921 C25.133,13.38 26.362,11.988 27.9,10.864 C28.1,10.864 29.944,9.999 31.5,9.999 C33.056,9.999 34.9,10.864 35.1,10.864 C36.44,11.9 37.65,13.041 38.629,14.443 C41.613,18.716 45.446,18.638 51,18.564 C51,18.663 51,18.761 51,18.86 C50.05,21.45 47.912,25.413 45.398,25.941 ZM20.805,34.181 C20.817,34.012 20.958,33.871 21.13,33.871 C21.13,33.871 21.443,33.871 21.443,33.871 C21.618,33.871 21.761,34.01 21.766,34.184 C21.794,35.22 21.96,36.156 22.256,36.967 C22.639,38.003 23.391,38.952 24.496,39.782 C24.901,40.09 25.249,40.234 25.597,40.234 C26.134,40.234 26.673,39.877 27.357,39.424 C27.357,39.424 27.489,39.339 27.489,39.339 C28.216,38.861 29.154,38.575 30.012,38.575 C30.463,38.575 30.875,38.652 31.234,38.804 C31.71,39.005 32.008,39.181 32.202,39.334 C32.389,39.182 32.689,39.005 33.164,38.804 C33.523,38.652 33.935,38.575 34.385,38.575 C35.243,38.575 36.187,38.861 36.911,39.339 C36.911,39.339 37.041,39.424 37.041,39.424 C37.726,39.877 38.262,40.234 38.799,40.234 C39.145,40.234 39.498,40.09 39.902,39.782 C41.005,38.952 41.758,38.003 42.14,36.967 C42.435,36.156 42.602,35.22 42.631,34.184 C42.635,34.01 42.778,33.871 42.957,33.871 C42.957,33.871 43.268,33.871 43.268,33.871 C43.436,33.871 43.581,34 43.59,34.169 C43.59,34.169 43.599,34.239 43.599,34.239 C43.782,37.153 44.056,41.541 42.521,44.288 C42.049,45.136 41.426,45.883 40.825,46.609 C40.825,46.609 40.798,46.639 40.798,46.639 C39.498,48.207 37.865,51.26 36.081,52.107 C35.636,52.358 35.106,52.555 34.519,52.693 C33.834,52.886 33.057,52.994 32.276,52.999 C32.276,52.999 32.201,53 32.201,53 C30.616,53 28.551,52.219 28.411,52.154 C26.587,51.307 24.924,48.236 23.595,46.639 C23.595,46.639 23.572,46.609 23.572,46.609 C22.971,45.883 22.347,45.136 21.876,44.288 C20.337,41.542 20.616,37.153 20.8,34.253 C20.8,34.253 20.805,34.181 20.805,34.181 ZM28.443,42.659 C28.676,43.209 28.95,43.611 29.287,43.883 C29.566,44.11 30.017,44.353 30.444,44.353 C30.514,44.353 30.579,44.348 30.643,44.334 C30.815,44.3 30.935,44.211 31.039,44.128 C31.068,44.107 31.094,44.086 31.125,44.068 C31.308,43.94 31.54,43.878 31.785,43.812 C31.785,43.812 31.88,43.785 31.88,43.785 C32.113,43.724 32.287,43.724 32.515,43.785 C32.515,43.785 32.612,43.812 32.612,43.812 C32.856,43.878 33.085,43.939 33.276,44.068 C33.302,44.086 33.33,44.107 33.358,44.128 C33.464,44.211 33.584,44.3 33.754,44.334 C33.816,44.347 33.885,44.353 33.953,44.353 C34.38,44.353 34.833,44.11 35.11,43.883 C35.446,43.611 35.723,43.209 35.953,42.659 C36.07,42.386 36.077,42.136 35.992,41.907 C35.877,41.624 35.612,41.398 35.186,41.211 C34.529,40.927 33.834,40.774 33.052,40.745 C33.036,40.742 32.949,40.742 32.837,40.742 C32.413,40.742 31.986,40.742 31.56,40.742 C31.447,40.742 31.365,40.742 31.347,40.745 C30.566,40.774 29.869,40.927 29.214,41.211 C28.788,41.398 28.522,41.624 28.41,41.907 C28.318,42.136 28.33,42.386 28.443,42.659 Z "/></svg>