<?xml version="1.0" encoding="utf-8"?><!DOCTYPE svg PUBLIC "-//W3C//DTD SVG 1.1//EN" "http://www.w3.org/Graphics/SVG/1.1/DTD/svg11.dtd"><svg version="1.1" baseProfile="full" xmlns="http://www.w3.org/2000/svg" xmlns:xlink="http://www.w3.org/1999/xlink" xmlns:ev="http://www.w3.org/2001/xml-events"   height="82px"   width="131px" ><path fill="rgb( 41, 143, 175 )" d="M66.5,20 C85.554,20 101,33.8789999999999 101,51 C101,68.1210000000001 85.554,82 66.5,82 C47.446,82 32,68.1210000000001 32,51 C32,33.8789999999999 47.446,20 66.5,20 Z "/><path fill="rgb( 255, 214, 70 )" d="M66.5,16.625 C85.554,16.625 101,30.5880000000002 101,47.8119999999999 C101,65.0369999999998 85.554,79 66.5,79 C47.446,79 32,65.0369999999998 32,47.8119999999999 C32,30.5880000000002 47.446,16.625 66.5,16.625 Z "/><path fill="rgb( 255, 244, 70 )" d="M66.5,13 C85.554,13 101,26.9630000000002 101,44.1880000000001 C101,61.4119999999998 85.554,75.375 66.5,75.375 C47.446,75.375 32,61.4119999999998 32,44.1880000000001 C32,26.9630000000002 47.446,13 66.5,13 Z "/><path fill="rgb( 255, 244, 70 )" d="M130,48 C130,48 129,48 129,48 C128.448,48 128,47.5520000000001 128,47 C128,46.4479999999999 128.448,46 129,46 C129,46 130,46 130,46 C130.552,46 131,46.4479999999999 131,47 C131,47.5520000000001 130.552,48 130,48 ZM124,48 C124,48 110,48 110,48 C109.448,48 109,47.5520000000001 109,47 C109,46.4479999999999 109.448,46 110,46 C110,46 124,46 124,46 C124.552,46 125,46.4479999999999 125,47 C125,47.5520000000001 124.552,48 124,48 ZM121,5 C121,5 120,5 120,5 C119.448,5 119,4.55200000000013 119,4 C119,3.44799999999987 119.448,3 120,3 C120,3 121,3 121,3 C121.552,3 122,3.44799999999987 122,4 C122,4.55200000000013 121.552,5 121,5 ZM116,8 C116,8 115,8 115,8 C114.448,8 114,7.55200000000013 114,7 C114,6.44799999999987 114.448,6 115,6 C115,6 116,6 116,6 C116.552,6 117,6.44799999999987 117,7 C117,7.55200000000013 116.552,8 116,8 ZM111,29 C111,29 110,29 110,29 C109.448,29 109,28.5520000000001 109,28 C109,27.4479999999999 109.448,27 110,27 C110,27 111,27 111,27 C111.552,27 112,27.4479999999999 112,28 C112,28.5520000000001 111.552,29 111,29 ZM104.605,14.866 C104.127,15.1419999999998 103.515,14.9780000000001 103.239,14.5 C102.963,14.0219999999999 103.127,13.4099999999999 103.605,13.134 C103.605,13.134 109.667,9.63400000000001 109.667,9.63400000000001 C110.146,9.35800000000017 110.757,9.52199999999993 111.033,10 C111.309,10.4780000000001 111.146,11.0900000000001 110.667,11.366 C110.667,11.366 104.605,14.866 104.605,14.866 ZM67,5 C66.448,5 66,4.55200000000013 66,4 C66,4 66,1 66,1 C66,0.44799999999987 66.448,0 67,0 C67.552,0 68,0.44799999999987 68,1 C68,1 68,4 68,4 C68,4.55200000000013 67.552,5 67,5 ZM28.261,15.366 C28.261,15.366 21.333,11.366 21.333,11.366 C20.854,11.0900000000001 20.691,10.4780000000001 20.967,10 C21.2430000000001,9.52199999999993 21.854,9.35800000000017 22.333,9.63400000000001 C22.333,9.63400000000001 29.261,13.634 29.261,13.634 C29.739,13.9099999999999 29.903,14.5219999999999 29.627,15 C29.351,15.4780000000001 28.739,15.6419999999998 28.261,15.366 ZM22,27 C22.552,27 23,27.4479999999999 23,28 C23,28.5520000000001 22.552,29 22,29 C22,29 21,29 21,29 C20.448,29 20,28.5520000000001 20,28 C20,27.4479999999999 20.448,27 21,27 C21,27 22,27 22,27 ZM18,8 C18,8 17,8 17,8 C16.448,8 16,7.55200000000013 16,7 C16,6.44799999999987 16.448,6 17,6 C17,6 18,6 18,6 C18.552,6 19,6.44799999999987 19,7 C19,7.55200000000013 18.552,8 18,8 ZM13,5 C13,5 12,5 12,5 C11.448,5 11,4.55200000000013 11,4 C11,3.44799999999987 11.448,3 12,3 C12,3 13,3 13,3 C13.552,3 14,3.44799999999987 14,4 C14,4.55200000000013 13.552,5 13,5 ZM24,47 C24,47.5520000000001 23.552,48 23,48 C23,48 9,48 9,48 C8.44799999999998,48 8,47.5520000000001 8,47 C8,46.4479999999999 8.44799999999998,46 9,46 C9,46 23,46 23,46 C23.552,46 24,46.4479999999999 24,47 ZM2,48 C2,48 1,48 1,48 C0.44799999999998,48 0,47.5520000000001 0,47 C0,46.4479999999999 0.44799999999998,46 1,46 C1,46 2,46 2,46 C2.55200000000002,46 3,46.4479999999999 3,47 C3,47.5520000000001 2.55200000000002,48 2,48 Z "/></svg>