<?xml version="1.0" encoding="utf-8"?><!DOCTYPE svg PUBLIC "-//W3C//DTD SVG 1.1//EN" "http://www.w3.org/Graphics/SVG/1.1/DTD/svg11.dtd"><svg version="1.1" baseProfile="full" xmlns="http://www.w3.org/2000/svg" xmlns:xlink="http://www.w3.org/1999/xlink" xmlns:ev="http://www.w3.org/2001/xml-events"   height="15px"   width="13px" ><path fill="rgb( 255, 255, 255 )" d="M8.78399999999999,11.082 C8.78399999999999,11.082 9.73099999999999,12.014 9.73099999999999,12.014 C9.34799999999996,12.312 8.50300000000004,12.887 7.40800000000002,13.113 C7.40800000000002,13.113 7.40800000000002,7.971 7.40800000000002,7.971 C7.40800000000002,7.971 9.495,7.971 9.495,7.971 C9.99599999999998,7.971 10.402,7.571 10.402,7.078 C10.402,6.585 9.99599999999998,6.185 9.495,6.185 C9.495,6.185 7.40800000000002,6.185 7.40800000000002,6.185 C7.40800000000002,6.185 7.40800000000002,5.084 7.40800000000002,5.084 C7.40800000000002,5.084 7.38400000000001,5.084 7.38400000000001,5.084 C8.14099999999996,4.75 8.67100000000005,4.003 8.67100000000005,3.135 C8.67100000000005,1.957 7.697,0.999 6.5,0.999 C5.30399999999997,0.999 4.33000000000004,1.957 4.33000000000004,3.135 C4.33000000000004,4.003 4.85900000000004,4.75 5.61599999999999,5.084 C5.61599999999999,5.084 5.59299999999996,5.084 5.59299999999996,5.084 C5.59299999999996,5.084 5.59299999999996,6.185 5.59299999999996,6.185 C5.59299999999996,6.185 3.505,6.185 3.505,6.185 C3.00400000000002,6.185 2.59799999999996,6.585 2.59799999999996,7.078 C2.59799999999996,7.571 3.00400000000002,7.971 3.505,7.971 C3.505,7.971 5.59299999999996,7.971 5.59299999999996,7.971 C5.59299999999996,7.971 5.59299999999996,13.113 5.59299999999996,13.113 C4.49699999999996,12.887 3.65200000000004,12.313 3.26999999999998,12.014 C3.26999999999998,12.014 4.21699999999998,11.082 4.21699999999998,11.082 C4.21699999999998,11.082 0.99900000000002,11.079 0.99900000000002,11.079 C0.99900000000002,11.079 1.00199999999995,14.245 1.00199999999995,14.245 C1.00199999999995,14.245 1.98000000000002,13.284 1.98000000000002,13.284 C2.553,13.764 4.24099999999999,14.997 6.5,14.997 C8.75900000000001,14.997 10.448,13.764 11.021,13.284 C11.021,13.284 11.999,14.245 11.999,14.245 C11.999,14.245 12.002,11.079 12.002,11.079 C12.002,11.079 8.78399999999999,11.082 8.78399999999999,11.082 ZM6.5,4.028 C5.99900000000002,4.028 5.59299999999996,3.628 5.59299999999996,3.135 C5.59299999999996,2.642 5.99900000000002,2.242 6.5,2.242 C7.00099999999998,2.242 7.40800000000002,2.642 7.40800000000002,3.135 C7.40800000000002,3.628 7.00099999999998,4.028 6.5,4.028 Z "/></svg>