<?xml version="1.0" encoding="utf-8"?><!DOCTYPE svg PUBLIC "-//W3C//DTD SVG 1.1//EN" "http://www.w3.org/Graphics/SVG/1.1/DTD/svg11.dtd"><svg version="1.1" baseProfile="full" xmlns="http://www.w3.org/2000/svg" xmlns:xlink="http://www.w3.org/1999/xlink" xmlns:ev="http://www.w3.org/2001/xml-events"   height="56px"   width="67px" ><path fill="rgb( 0, 101, 139 )" d="M53.569,41.9400000000001 C53.569,41.9400000000001 53.569,41.967 53.569,41.967 C53.569,41.967 52.569,42 52.569,42 C52.569,42 45.886,42 45.886,42 C45.953,41.509 46,41.011 46,40.5 C46,40.327 45.9829999999999,40.167 45.9749999999999,40 C45.9749999999999,40 51.569,40 51.569,40 C51.569,40 51.569,39.966 51.569,39.966 C51.569,39.966 52.6890000000001,39.972 52.6890000000001,39.972 C59.4559999999999,39.97 65,36.3390000000001 65,29.4160000000001 C65,24.044 61.6320000000001,21.271 56.6179999999999,19.538 C56.6179999999999,19.538 56.021,19.332 56.021,19.332 C56.021,19.332 55.95,18.706 55.95,18.706 C54.809,8.61199999999997 46.3979999999999,2.00099999999998 36.3869999999999,2.00099999999998 C28.837,2.00099999999998 21.856,5.49099999999999 18.601,12.441 C18.601,12.441 18.323,13.035 18.323,13.035 C18.323,13.035 17.667,13.0170000000001 17.667,13.0170000000001 C17.585,13.014 17.503,13.008 17.421,13.003 C17.357,12.999 17.294,12.9930000000001 17.229,12.9930000000001 C8.83100000000002,12.9930000000001 2,17.932 2,26.461 C2,34.989 8.83100000000002,39.926 17.229,39.926 C17.229,39.926 18.229,39.926 18.229,39.926 C18.229,39.926 18.232,40 18.232,40 C18.232,40 26.025,40 26.025,40 C26.0170000000001,40.167 26,40.327 26,40.5 C26,41.011 26.047,41.509 26.114,42 C26.114,42 16.268,42 16.268,42 C16.268,42 16.268,41.896 16.268,41.896 C7.19399999999996,41.374 0,35.753 0,26.461 C0,16.879 7.649,11.074 17.081,10.9930000000001 C20.779,3.68600000000004 28.284,0 36.3869999999999,0 C47.212,0 56.337,7.06700000000001 57.8599999999999,17.866 C63.3530000000001,20.037 67,23.404 67,29.4160000000001 C67,37.125 61.056,41.454 53.569,41.9400000000001 Z "/><path fill="rgb( 0, 169, 232 )" d="M43,56 C43,56 29,56 29,56 C27.895,56 27,55.104 27,54 C27,54 27,50 27,50 C27,48.895 27.895,48 29,48 C29,48 35,48 35,48 C35,48 35,39.899 35,39.899 C32.165,39.421 30,36.971 30,34 C30,30.686 32.686,28 36,28 C39.3140000000001,28 42,30.686 42,34 C42,36.971 39.835,39.421 37,39.899 C37,39.899 37,48 37,48 C37,48 43,48 43,48 C44.105,48 45,48.895 45,50 C45,50 45,54 45,54 C45,55.104 44.105,56 43,56 ZM40,34 C40,31.7910000000001 38.2090000000001,30 36,30 C33.7910000000001,30 32,31.7910000000001 32,34 C32,36.2089999999999 33.7910000000001,38 36,38 C38.2090000000001,38 40,36.2089999999999 40,34 ZM43,51 C43,50.448 42.5519999999999,50 42,50 C42,50 30,50 30,50 C29.448,50 29,50.448 29,51 C29,51 29,53 29,53 C29,53.552 29.448,54 30,54 C30,54 42,54 42,54 C42.5519999999999,54 43,53.552 43,53 C43,53 43,51 43,51 Z "/></svg>