<?xml version="1.0" encoding="utf-8"?><!DOCTYPE svg PUBLIC "-//W3C//DTD SVG 1.1//EN" "http://www.w3.org/Graphics/SVG/1.1/DTD/svg11.dtd"><svg version="1.1" baseProfile="full" xmlns="http://www.w3.org/2000/svg" xmlns:xlink="http://www.w3.org/1999/xlink" xmlns:ev="http://www.w3.org/2001/xml-events"   height="48px"   width="43px" ><path fill="rgb( 0, 101, 139 )" d="M7,27.001 C7,27.001 33,27.001 33,27.001 C33.553,27.001 34,27.448 34,28 C34,28.553 33.553,29 33,29 C33,29 7,29 7,29 C6.44799999999998,29 6,28.553 6,28 C6,27.448 6.44799999999998,27.001 7,27.001 ZM7,35 C7,35 16,35 16,35 C16.553,35 17,35.448 17,36 C17,36.553 16.553,37 16,37 C16,37 7,37 7,37 C6.44799999999998,37 6,36.553 6,36 C6,35.448 6.44799999999998,35 7,35 ZM7,31 C7,31 33,31 33,31 C33.553,31 34,31.448 34,32 C34,32.553 33.553,33 33,33 C33,33 7,33 7,33 C6.44799999999998,33 6,32.553 6,32 C6,31.448 6.44799999999998,31 7,31 ZM7,21 C6.44799999999998,21 6,20.553 6,20 C6,19.448 6.44799999999998,19.001 7,19.001 C7,19.001 19,19.001 19,19.001 C19.553,19.001 20,19.448 20,20 C20,20.553 19.553,21 19,21 C19,21 7,21 7,21 ZM34,24 C34,24.552 33.553,25 33,25 C33,25 7,25 7,25 C6.44799999999998,25 6,24.552 6,24 C6,23.448 6.44799999999998,23 7,23 C7,23 33,23 33,23 C33.553,23 34,23.448 34,24 ZM28.05,4 C28.05,4 5,4 5,4 C3.346,4 2,5.346 2,7.00099999999998 C2,7.00099999999998 2,43 2,43 C2,44.655 3.346,46 5,46 C5,46 36,46 36,46 C37.654,46 39,44.655 39,43 C39,43 39,14.949 39,14.949 C39.69,14.881 40.359,14.742 41,14.5410000000001 C41,14.5410000000001 41,43 41,43 C41,45.7569999999999 38.757,48 36,48 C36,48 5,48 5,48 C2.24299999999999,48 0,45.7569999999999 0,43 C0,43 0,7.00099999999998 0,7.00099999999998 C0,4.24300000000005 2.24299999999999,2 5,2 C5,2 28.459,2 28.459,2 C28.258,2.64099999999996 28.119,3.30999999999995 28.05,4 Z "/><path fill="rgb( 0, 169, 232 )" d="M41.465,5.62699999999995 C41.465,5.62699999999995 31.093,15.999 31.093,15.999 C31.001,16.092 30.892,16.165 30.771,16.215 C30.771,16.215 29.441,16.769 29.441,16.769 C29.441,16.769 28.385,17.293 28.385,17.293 C28.385,17.293 28.265,17.414 28.265,17.414 C27.819,17.859 27.143,17.898 26.629,17.578 C26.629,17.578 25.88,18.326 25.88,18.326 C25.489,18.717 24.857,18.717 24.466,18.327 C24.075,17.936 24.075,17.303 24.466,16.912 C24.466,16.912 25.337,16.0410000000001 25.337,16.0410000000001 C25.245,15.614 25.341,15.153 25.673,14.821 C25.673,14.821 25.769,14.725 25.769,14.725 C25.769,14.725 26.221,13.6420000000001 26.221,13.6420000000001 C26.221,13.6420000000001 26.59,12.2140000000001 26.59,12.2140000000001 C26.634,12.0410000000001 26.724,11.884 26.851,11.7569999999999 C26.851,11.7569999999999 37.223,1.38499999999999 37.223,1.38499999999999 C38.392,0.21500000000003 40.296,0.21500000000003 41.466,1.38499999999999 C42.635,2.55399999999997 42.635,4.45799999999997 41.465,5.62699999999995 ZM40.051,2.79899999999998 C39.661,2.40899999999999 39.027,2.40899999999999 38.637,2.79899999999998 C38.637,2.79899999999998 28.458,12.978 28.458,12.978 C28.458,12.978 28.139,14.211 28.139,14.211 C28.128,14.2569999999999 28.113,14.302 28.094,14.345 C28.094,14.345 27.642,15.4299999999999 27.642,15.4299999999999 C27.642,15.4299999999999 28.613,14.949 28.613,14.949 C28.613,14.949 29.819,14.446 29.819,14.446 C29.819,14.446 40.051,4.21299999999997 40.051,4.21299999999997 C40.441,3.82399999999996 40.441,3.18899999999996 40.051,2.79899999999998 Z "/></svg>