<?xml version="1.0" encoding="utf-8"?><!DOCTYPE svg PUBLIC "-//W3C//DTD SVG 1.1//EN" "http://www.w3.org/Graphics/SVG/1.1/DTD/svg11.dtd"><svg version="1.1" baseProfile="full" xmlns="http://www.w3.org/2000/svg" xmlns:xlink="http://www.w3.org/1999/xlink" xmlns:ev="http://www.w3.org/2001/xml-events"   height="47px"   width="61px" ><path fill="rgb( 0, 101, 139 )" d="M46.5,18 C46.331,18 46.168,18.02 46,18.025 C46,18.025 46,12 46,12 C46,12 2,12 2,12 C2,12 2,33 2,33 C2,34.654 3.346,36 5,36 C5,36 30.076,36 30.076,36 C30.1369999999999,36.6799999999999 30.239,37.347 30.38,38 C30.38,38 5,38 5,38 C2.24300000000005,38 0,35.7569999999999 0,33 C0,33 0,5 0,5 C0,2.24300000000005 2.24300000000005,0 5,0 C5,0 43,0 43,0 C45.7569999999999,0 48,2.24300000000005 48,5 C48,5 48,18.076 48,18.076 C47.505,18.0309999999999 47.006,18 46.5,18 ZM46,5 C46,3.34500000000003 44.654,2 43,2 C43,2 5,2 5,2 C3.346,2 2,3.34500000000003 2,5 C2,5 2,10 2,10 C2,10 46,10 46,10 C46,10 46,5 46,5 ZM8,4 C9.10199999999998,4 10,4.89700000000005 10,6 C10,7.10299999999995 9.10199999999998,8 8,8 C6.89700000000005,8 6,7.10299999999995 6,6 C6,4.89700000000005 6.89700000000005,4 8,4 ZM14,4 C15.103,4 16,4.89700000000005 16,6 C16,7.10299999999995 15.103,8 14,8 C12.897,8 12,7.10299999999995 12,6 C12,4.89700000000005 12.897,4 14,4 ZM20,4 C21.103,4 22,4.89700000000005 22,6 C22,7.10299999999995 21.103,8 20,8 C18.898,8 18,7.10299999999995 18,6 C18,4.89700000000005 18.898,4 20,4 Z "/><path fill="rgb( 0, 169, 232 )" d="M48,47 C40.832,47 35,41.168 35,34 C35,26.832 40.832,21 48,21 C55.168,21 61,26.832 61,34 C61,41.168 55.168,47 48,47 ZM48,23 C41.9349999999999,23 37,27.9349999999999 37,34 C37,40.0650000000001 41.9349999999999,45 48,45 C54.0650000000001,45 59,40.0650000000001 59,34 C59,27.9349999999999 54.0650000000001,23 48,23 ZM51.293,33.707 C51.293,33.707 49,31.414 49,31.414 C49,31.414 49,39 49,39 C49,39.552 48.553,40 48,40 C47.447,40 47,39.552 47,39 C47,39 47,31.414 47,31.414 C47,31.414 44.707,33.707 44.707,33.707 C44.316,34.098 43.684,34.098 43.293,33.707 C42.902,33.316 42.902,32.684 43.293,32.293 C43.293,32.293 47.293,28.293 47.293,28.293 C47.293,28.293 47.293,28.293 47.293,28.293 C47.293,28.293 47.293,28.293 47.293,28.293 C47.294,28.292 47.295,28.292 47.296,28.2910000000001 C47.388,28.2 47.497,28.127 47.6180000000001,28.077 C47.74,28.027 47.87,28 48,28 C48.13,28 48.26,28.027 48.3819999999999,28.077 C48.503,28.127 48.6130000000001,28.2 48.705,28.2910000000001 C48.705,28.292 48.706,28.292 48.707,28.293 C48.707,28.293 48.707,28.293 48.707,28.293 C48.707,28.293 48.707,28.293 48.707,28.293 C48.707,28.293 52.707,32.293 52.707,32.293 C53.098,32.684 53.098,33.316 52.707,33.707 C52.316,34.098 51.684,34.098 51.293,33.707 Z "/></svg>