<?xml version="1.0" encoding="utf-8"?><!DOCTYPE svg PUBLIC "-//W3C//DTD SVG 1.1//EN" "http://www.w3.org/Graphics/SVG/1.1/DTD/svg11.dtd"><svg version="1.1" baseProfile="full" xmlns="http://www.w3.org/2000/svg" xmlns:xlink="http://www.w3.org/1999/xlink" xmlns:ev="http://www.w3.org/2001/xml-events"   height="42px"   width="58px" ><path fill="rgb( 0, 101, 139 )" d="M31.072,18.9000000000001 C31.072,17.741 30.144,16.8009999999999 29,16.8009999999999 C27.857,16.8009999999999 26.9299999999999,17.741 26.9299999999999,18.9000000000001 C26.9299999999999,19.5029999999999 27.188,20.038 27.59,20.422 C27.59,20.422 27,23 27,23 C27,23 31,23 31,23 C31,23 30.4109999999999,20.422 30.4109999999999,20.422 C30.813,20.038 31.072,19.5029999999999 31.072,18.9000000000001 ZM15.999,23.0050000000001 C15.999,23.0050000000001 9.00800000000004,23.0050000000001 9.00800000000004,23.0050000000001 C8.45899999999995,23.0050000000001 8.00900000000001,23.4570000000001 8.00900000000001,24.008 C8.00900000000001,24.5599999999999 8.45899999999995,25.011 9.00800000000004,25.011 C9.00800000000004,25.011 15.999,25.011 15.999,25.011 C16.548,25.011 16.998,24.5599999999999 16.998,24.008 C16.998,23.4570000000001 16.548,23.0050000000001 15.999,23.0050000000001 C15.999,23.0050000000001 15.999,23.0050000000001 15.999,23.0050000000001 ZM33,15 C33,15 33,17 33,17 C33,17 33.143,18.9000000000001 33.143,18.9000000000001 C33.143,18.9000000000001 33,21 33,21 C33,23.316 31.285,25.1990000000001 29,25.1990000000001 C26.716,25.1990000000001 25,23.316 25,21 C25,21 25,19 25,19 C25,19 24.8579999999999,16.8009999999999 24.8579999999999,16.8009999999999 C24.8579999999999,16.8009999999999 25,15 25,15 C25,15 33,15 33,15 M57.994,0.00500000000011 C57.994,0.00500000000011 0.00699999999995,0.00500000000011 0.00699999999995,0.00500000000011 C0.00699999999995,0.00500000000011 0.00699999999995,14.701 0.00699999999995,14.701 C0.00699999999995,14.701 0.00699999999995,39.895 0.00699999999995,39.895 C0.00699999999995,41.0550000000001 0.93399999999997,41.9949999999999 2.07799999999997,41.9949999999999 C2.07799999999997,41.9949999999999 55.923,41.9949999999999 55.923,41.9949999999999 C57.066,41.9949999999999 57.994,41.0550000000001 57.994,39.895 C57.994,39.895 57.994,14.701 57.994,14.701 C57.994,14.701 57.994,0.00500000000011 57.994,0.00500000000011 C57.994,0.00500000000011 57.994,0.00500000000011 57.994,0.00500000000011 ZM54,12 C54,12 53.852,2.10400000000004 53.852,2.10400000000004 C53.852,2.10400000000004 55.923,2.10400000000004 55.923,2.10400000000004 C55.923,2.10400000000004 56,12 56,12 C56,12 54,12 54,12 C54,12 54,12 54,12 ZM6,4 C6,4 6,2 6,2 C6,2 52,2 52,2 C52,2 52,4 52,4 C52,4 37,4 37,4 C36.431,4 35.568,4.67599999999993 35.568,5.25399999999991 C35.568,5.8309999999999 36.431,6 37,6 C37,6 52,6 52,6 C52,6 52,12 52,12 C52,12 35,12 35,12 C35,12 23,12 23,12 C23,12 6,12 6,12 C6,12 6,6 6,6 C6,6 12,6 12,6 C12.569,6 12.646,5.8309999999999 12.646,5.25399999999991 C12.646,4.67599999999993 12.569,4 12,4 C12,4 6,4 6,4 C6,4 6,4 6,4 ZM2,12 C2,12 2,2 2,2 C2,2 4,2 4,2 C4,2 4,12 4,12 C4,12 2,12 2,12 C2,12 2,12 2,12 ZM35,17 C35,17 35,15 35,15 C35,15 56,15 56,15 C56,15 56,40 56,40 C56,40 2,40 2,40 C2,40 2,15 2,15 C2,15 23,15 23,15 C23,15 23,17 23,17 C23,17 4,17 4,17 C4,17 4,38 4,38 C4,38 54,38 54,38 C54,38 54,17 54,17 C54,17 35,17 35,17 C35,17 35,17 35,17 ZM29,27.298 C32.432,27.298 35,24.479 35,21 C35,21 35,19 35,19 C35,19 52,19 52,19 C52,19 52,25 52,25 C52,25 43,25 43,25 C42.431,25 42.285,25.671 42.285,26.249 C42.285,26.826 42.431,27 43,27 C43,27 52,27 52,27 C52,27 52,32 52,32 C52,32 37,32 37,32 C36.431,32 35.568,31.97 35.568,32.547 C35.568,33.124 36.431,34 37,34 C37,34 52,34 52,34 C52,34 52,36 52,36 C52,36 6,36 6,36 C6,36 6,31 6,31 C6,31 54,31 54,31 C54.569,31 53,31.0250000000001 53,30.4480000000001 C53,29.8699999999999 54.569,29 54,29 C54,29 6,29 6,29 C6,29 6,19 6,19 C6,19 23,19 23,19 C23,19 23,21 23,21 C23,24.479 25.569,27.298 29,27.298 C29,27.298 29,27.298 29,27.298 ZM21.9400000000001,7.99700000000007 C21.9400000000001,7.99700000000007 11.061,7.99700000000007 11.061,7.99700000000007 C10.476,7.99700000000007 9.99800000000005,8.44800000000009 9.99800000000005,8.99900000000002 C9.99800000000005,9.55099999999993 10.476,10.002 11.061,10.002 C11.061,10.002 21.9400000000001,10.002 21.9400000000001,10.002 C22.525,10.002 23.003,9.55099999999993 23.003,8.99900000000002 C23.003,8.44800000000009 22.525,7.99700000000007 21.9400000000001,7.99700000000007 C21.9400000000001,7.99700000000007 21.9400000000001,7.99700000000007 21.9400000000001,7.99700000000007 Z "/></svg>